PathFileType	4	(X/Y/Z)	Walk7.trc
DataRate	CameraRate	NumFrames	NumMarkers	Units	OrigDataRate	OrigDataStartFrame	OrigNumFrames
200.000000	200.000000	5	71	mm	200.000000	445	658
Frame#	Times		T10		RPSI		LowerBodyModelVer		RTH4		RElbow		C7		LBHD		LToe		LMT5		RBHD		RBack		LMT1		LTB1		LWRU		LLMAL		LTB3		RTH2		RUA1		LElbowM		LTB4		LLFC		LTB2		LTH3		RLFC		LACR1		RTB2		RTH3		RMFC		RKJC		RTB3		LASI		LElbow		LUA1		RTB1		RToe		LMFC		LKJC		RFA1		RWRU		RCAR		RMT1		RTB4		RWRR		RCAL		RMT5		RMMAL		RLMAL		LFHD		RFHD		LPSI		SACR		LCAR		LMMAL		LTH4		LCAL		RASI		LTH1		LHJC		MidPelvis		OPelvis		PELOrigin		RHJC		XPelvis		YPelvis		ZPelvis		LWRR		LTH2		RTH1		RACR1		RElbowM		STRN
			X1	Y1	Z1	X2	Y2	Z2	X3	Y3	Z3	X4	Y4	Z4	X5	Y5	Z5	X6	Y6	Z6	X7	Y7	Z7	X8	Y8	Z8	X9	Y9	Z9	X10	Y10	Z10	X11	Y11	Z11	X12	Y12	Z12	X13	Y13	Z13	X14	Y14	Z14	X15	Y15	Z15	X16	Y16	Z16	X17	Y17	Z17	X18	Y18	Z18	X19	Y19	Z19	X20	Y20	Z20	X21	Y21	Z21	X22	Y22	Z22	X23	Y23	Z23	X24	Y24	Z24	X25	Y25	Z25	X26	Y26	Z26	X27	Y27	Z27	X28	Y28	Z28	X29	Y29	Z29	X30	Y30	Z30	X31	Y31	Z31	X32	Y32	Z32	X33	Y33	Z33	X34	Y34	Z34	X35	Y35	Z35	X36	Y36	Z36	X37	Y37	Z37	X38	Y38	Z38	X39	Y39	Z39	X40	Y40	Z40	X41	Y41	Z41	X42	Y42	Z42	X43	Y43	Z43	X44	Y44	Z44	X45	Y45	Z45	X46	Y46	Z46	X47	Y47	Z47	X48	Y48	Z48	X49	Y49	Z49	X50	Y50	Z50	X51	Y51	Z51	X52	Y52	Z52	X53	Y53	Z53	X54	Y54	Z54	X55	Y55	Z55	X56	Y56	Z56	X57	Y57	Z57	X58	Y58	Z58	X59	Y59	Z59	X60	Y60	Z60	X61	Y61	Z61	X62	Y62	Z62	X63	Y63	Z63	X64	Y64	Z64	X65	Y65	Z65	X66	Y66	Z66	X67	Y67	Z67	X68	Y68	Z68	X69	Y69	Z69	X70	Y70	Z70	X71	Y71	Z71

445	2.225	-178.88	1200.2	-13.523	-190.6	1013.1	21.408	9	2014	4	37.592	645.78	141.66	-172.67	1066	180.29	-101.65	1455.7	-11.626	-65.434	1589.1	-69.259	-178.77	21.912	-87.113	-274.26	22.538	-145.38	-64.024	1579.4	67.276	-130.13	1338.9	134.5	-235.8	28.775	-63.126	-172.93	361.6	-59.449	131.58	824.9	-297.08	-376.28	85.981	-120.46	-269.97	203.87	-62.465	96.825	673.49	107.69	-53.39	1213.5	224.48	-65.864	1042.3	-263.81	-222.18	283.15	-59.722	-160.15	497.71	-144.05	-219.5	283.2	-132.01	-127.23	558.49	-154.78	83.146	516.56	117.44	-7.2392	1397.3	-178.54	163.53	292.68	108.01	66.457	557.96	118.69	79.448	478.75	-8.7711	81.297	497.66	54.337	193.22	207.98	34.63	-8.1114	1012.4	-177.86	-11.034	1067.4	-325.43	-0.3464	1202.9	-269.71	166.09	392.55	39.974	376.02	60.662	91.572	-185.96	485.73	-18.723	-173.05	491.72	-81.388	-117.15	898.55	253.51	-102.19	780.04	215.98	-37.222	756.54	245.81	333.62	45.006	48.914	181.58	296.5	35.237	-23.579	805.88	201.49	129.34	29.589	11.095	287	27.286	113.78	208.41	75.67	6.903	172.24	63.91	80.568	112.53	1618.3	-39.048	113.38	1612.5	42.873	-191.73	1013	-46.662	-191.17	1013.1	-12.627	201.29	836.55	-271.7	-355.03	86.614	-36.502	-104.89	649.33	-172.02	-446.22	74.284	-74.464	5.8759	960.44	132.26	-84.461	737.84	-189.7	-93.264	915.7	-139.09	-96.142	999.73	-17.715	-1.1177	986.4	-22.802	-1.1177	986.4	-22.802	-83.752	880.4	71.788	77.952	975.49	-28.194	10.518	1064.5	-10.244	2.4375	973.2	56.022	171.2	871.28	-239.24	-49.027	642.11	-125.82	0.64341	732.41	157.17	1.0597	1390.5	145.69	-140.51	1058.6	258.39	105.74	1209.1	-20.781
446	2.23	-173.08	1200.4	-12.835	-184.83	1013.5	21.883	9	2014	4	43.608	647.01	141.99	-166.67	1065.9	180.86	-96.033	1455.9	-10.232	-60.131	1589.3	-67.981	-178.65	21.964	-86.871	-274.06	22.769	-145.13	-58.487	1579.6	68.471	-124.49	1338.8	135.33	-235.53	28.789	-63.209	-167.96	361.44	-59.183	135.02	824.65	-296.31	-374.79	88.592	-120.71	-267.32	204.77	-62.276	102.49	674.98	107.54	-47.424	1213.3	225.33	-61.439	1042.7	-262.72	-218.2	283.6	-59.598	-153.89	497.58	-143.65	-215.79	283.81	-131.86	-120.9	558.18	-154.37	89.67	517.76	118.15	-2.1186	1397.7	-177.5	167.07	292.36	108.43	73.278	559.62	119.49	84.593	479.32	-7.9338	87.131	498.54	55.109	195.27	207.38	35.182	-2.0493	1013	-177.27	-6.9065	1067.8	-324.45	4.2696	1203.1	-268.79	170.83	392.46	40.341	376.58	57.865	92.036	-180.04	485.59	-18.665	-166.97	491.58	-81.157	-111.14	898.01	254.19	-96.777	779.64	216.6	-31.708	756.01	246.46	333.95	42.793	49.352	184.94	296.12	35.623	-18.324	805.44	202.11	129.59	30.115	11.547	287.01	26.402	114.79	208.97	75.155	7.1011	172.52	63.216	80.256	118.03	1618.6	-38.03	119.02	1612.8	43.841	-185.93	1013.3	-46.625	-185.38	1013.4	-12.371	204.85	836.15	-271.1	-353.32	89.061	-36.778	-98.956	649.13	-171.54	-444.98	78.134	-74.792	11.576	960.65	132.44	-78.475	737.82	-189.1	-87.131	916.33	-138.78	-90.307	1000.1	-17.392	4.7634	986.8	-22.414	4.7634	986.8	-22.414	-77.866	880.76	71.822	83.842	975.93	-27.729	16.361	1064.9	-9.7286	8.2305	973.49	56.395	174.79	871.1	-238.56	-42.663	642.07	-125.37	6.56	733.61	157.18	6.6334	1390.5	146.7	-134.44	1058.2	259.14	111.91	1209.6	-19.907
447	2.235	-167.91	1200.7	-12.209	-179.16	1014.2	21.98	9	2014	4	50.082	648.48	142.41	-160.57	1065.7	181.6	-90.297	1456.2	-8.8173	-54.898	1589.5	-66.693	-178.6	22.016	-86.641	-273.83	23.028	-144.65	-52.745	1579.6	69.789	-118.97	1338.6	136.55	-235.26	28.772	-63.271	-162.78	361.2	-58.929	138.33	824.58	-295.75	-373.1	91.225	-121.07	-264.39	206.05	-62.208	108.59	676.64	106.9	-41.218	1213.2	226.23	-57.174	1043.4	-261.57	-213.88	284.18	-59.312	-147.1	497.4	-143.29	-211.57	284.28	-131.59	-114.16	558.01	-153.93	96.151	518.63	119.11	3.26	1398.1	-176.46	170.71	292.42	108.67	80.312	560.9	120.58	90.082	480.23	-7.229	93.116	499.43	55.941	197.73	207.14	35.475	3.4985	1013.5	-176.56	-2.7018	1068.2	-323.5	8.7786	1203.5	-267.9	175.29	392.36	40.752	377.65	55.946	93.192	-173.59	485.69	-18.546	-160.35	491.54	-80.916	-105.69	897.75	254.77	-90.92	779.56	217.14	-26.456	755.62	247.11	334.36	41.923	50.407	187.77	295.85	36.196	-12.654	805.07	202.76	130.21	30.897	11.868	287.14	25.961	116.82	209.6	74.788	7.372	172.58	62.861	80.523	123.33	1619	-36.845	124.62	1613.1	45.044	-180.55	1013.8	-46.448	-179.86	1014	-12.234	208.12	835.75	-270.43	-351.93	91.388	-37.003	-92.815	648.74	-170.85	-443.56	81.973	-75.018	17.311	961.08	132.42	-72.514	737.46	-188.18	-81.382	917.07	-138.17	-84.727	1000.6	-17.153	10.405	987.3	-22.072	10.405	987.3	-22.072	-71.99	881.41	71.93	89.48	976.43	-27.451	22.011	1065.4	-9.3326	13.928	973.93	56.724	178.39	870.85	-237.93	-36.6	641.94	-124.78	12.678	735.24	157.24	12.379	1390.7	147.73	-128.39	1058	259.44	118	1210.2	-19.073
448	2.24	-162.49	1201.1	-11.57	-173.57	1014.8	22.132	9	2014	4	56.808	650.05	142.89	-154.32	1065.6	181.99	-84.74	1456.6	-7.7162	-49.319	1590	-65.509	-178.5	22.018	-86.437	-273.52	23.252	-144.04	-47.499	1579.9	71.14	-112.93	1338.8	137.8	-234.93	28.823	-63.39	-157.02	360.78	-58.8	141.43	824.63	-294.99	-371.16	94.177	-121.23	-260.92	207.57	-62.256	114.72	677.84	106.44	-35.341	1213.2	226.93	-53.112	1044	-260.4	-209.42	284.64	-58.922	-140.26	497.12	-142.6	-207.26	284.94	-131.57	-107.34	557.65	-153.29	102.24	519.68	120.12	8.6904	1398.6	-175.45	174.27	292.48	109.21	86.95	562.25	121.76	96.056	481.29	-6.3935	99.148	500.48	56.865	200.14	207.07	36.015	8.9053	1014.2	-175.5	1.4306	1068.8	-322.57	13.349	1203.9	-267.07	179.84	392.54	41.609	378.62	54.88	94.579	-167.23	485.55	-18.359	-153.75	491.34	-80.482	-100.15	897.57	255.32	-85.746	779.38	217.8	-20.725	755.31	247.77	335.17	42.055	52.2	191.09	295.73	36.928	-6.9904	804.68	203.45	130.64	31.404	12.117	287.26	25.576	118.35	210.35	74.642	7.6835	173.42	62.908	80.594	128.7	1619.5	-35.655	129.79	1613.4	46.335	-174.68	1013.9	-46.251	-174.12	1014.4	-12.059	211.2	835.47	-269.83	-350.01	94.086	-37.28	-86.147	648.56	-170.26	-442.01	86.284	-75.187	23.292	961.69	132.38	-66.323	737.14	-187.45	-75.495	917.91	-137.18	-79.012	1001.2	-16.811	16.099	987.95	-21.564	16.099	987.95	-21.564	-65.712	882.2	72.177	95.182	977.21	-27.09	27.598	1066.1	-8.7753	19.78	974.51	57.214	181.57	870.54	-237.3	-29.855	642.02	-124.17	19.462	736.99	158.01	17.959	1391	148.82	-122.56	1057.8	260.06	124.12	1210.7	-18.111
449	2.245	-157.27	1201.5	-10.822	-167.83	1015.6	22.084	9	2014	4	63.424	651.71	143.56	-147.97	1065.6	182.53	-79.119	1457.2	-6.6861	-43.989	1590.4	-64.237	-178.35	22.085	-86.075	-273.07	23.85	-143.74	-42.044	1580.2	72.366	-107.22	1339	138.79	-234.59	28.857	-63.566	-151.82	360.61	-58.347	144.32	824.54	-294.29	-369.19	97.177	-121.51	-257.52	209.04	-62.497	120.67	679.18	106.15	-29.683	1213.2	227.65	-49.475	1045.1	-259.5	-205.03	285.28	-59.012	-133.18	496.92	-142.08	-202.33	285.73	-131.66	-100.22	557.16	-152.7	108.45	521.02	120.87	14.065	1399.2	-174.26	177.85	292.79	110.04	92.922	563.93	122.88	101.73	482.79	-5.4149	105.09	501.91	57.729	202.44	207.13	36.642	14.041	1014.7	-174.49	5.2258	1069.3	-321.51	17.893	1204.4	-266.08	184.53	392.77	42.498	378.94	53.686	95.767	-160.67	485.38	-18.127	-146.93	491.15	-80.103	-93.917	897.17	255.68	-80.205	779.14	218.51	-15.282	754.93	248.54	335.66	42.255	53.13	194.76	295.82	37.636	-1.2507	804.27	204.09	130.91	31.606	12.465	287.47	25.006	119.14	211.15	74.708	7.8491	174.13	63.194	80.975	134.22	1620.2	-34.478	135.39	1614.1	47.483	-169.06	1014.2	-46.34	-168.45	1014.9	-12.128	214.47	835.29	-269.43	-348.24	96.694	-37.51	-79.2	648.41	-169.55	-440.04	90.792	-75.371	28.483	962.73	132.4	-59.909	737.21	-186.56	-69.931	918.66	-136.19	-73.592	1001.8	-16.586	21.262	988.73	-21.044	21.262	988.73	-21.044	-60.111	883.3	72.49	100.36	978.12	-26.563	32.629	1066.9	-8.3358	24.97	975.38	57.748	184.84	870.4	-236.76	-23.26	642.03	-123.47	26.598	738.8	159.17	23.466	1391.3	149.94	-116.24	1057.7	260.5	129.63	1211.4	-17.058
